{"title":"Solitary 4.0 Episode 8 (Season Finale)","uid":5481451,"size":390801141,"categoryP":"video","categoryS":"tv_shows","magnet":"?xt=urn:btih:dee3618a79eb4f4e875d435e316e47f2750f3f68&amp;dn=Solitary+4.0+Episode+8+%28Season+Finale%29&amp;tr=udp%3A%2F%2Ftracker.openbittorrent.com%3A80&amp;tr=udp%3A%2F%2Fopen.demonii.com%3A1337&amp;tr=udp%3A%2F%2Ftracker.coppersurfer.tk%3A6969&amp;tr=udp%3A%2F%2Fexodus.desync.com%3A6969","seeders":0,"leechers":0,"uploader":"pixiesmiles","files":-1,"time":1270460257,"description":"Solitary 4.0 Season Finale....woohoo!\n\nSorry about taking so long to get this to you, my fellow Solitary\nfans. My computer was on the fritz and I had to have my -oh so hunky\nDell repair dude- over to my house a few times to fix it. I'm thinking \nI might need to have him come a few more times though.... You know,\nto make SURE it stays fixed and all.. ~winks~\n\nI hope you enjoy the finale. It's unfortunate this is the last season\nthey plan to produce... but maybe we'll get lucky and another network\nwill see it for the gem it is and continue on with the tradition.\n**crossing fingers** :o)\n\nHere is the tech info for those interested:\n\nFormat                           : AVI\nFormat/Info                      : Audio Video Interleave\nFile size                        : 373 MiB\nDuration                         : 44mn 42s\nOverall bit rate                 : 1 165 Kbps\n\nVideo\nFormat                           : xvid\nCodec ID                         : xvid\nDuration                         : 44mn 42s\nBit rate                         : 1 024 Kbps\nWidth                            : 640 pixels\nHeight                           : 360 pixels\nDisplay aspect ratio             : 16:9\nFrame rate                       : 30.000 fps\nBits/(Pixel*Frame)               : 0.148\nStream size                      : 327 MiB (88%)\n\nAudio\nID                               : 1\nFormat                           : MPEG Audio\nFormat version                   : Version 1\nFormat profile                   : Layer 3\nMode                             : Joint stereo\nFormat_Settings_ModeExtension    : MS Stereo\nCodec ID                         : 55\nCodec ID/Hint                    : MP3\nDuration                         : 44mn 42s\nBit rate mode                    : Constant\nBit rate                         : 128 Kbps\nChannel(s)                       : 2 channels\nSampling rate                    : 48.0 KHz\nStream size                      : 40.9 MiB (11%)\n\nPlease do your part and:\n\nseed..\nSeed...\nSEED....!!\n","torrent":{"xt":"urn:btih:dee3618a79eb4f4e875d435e316e47f2750f3f68","amp;dn":"Solitary+4.0+Episode+8+%28Season+Finale%29","amp;tr":["udp%3A%2F%2Ftracker.openbittorrent.com%3A80","udp%3A%2F%2Fopen.demonii.com%3A1337","udp%3A%2F%2Ftracker.coppersurfer.tk%3A6969","udp%3A%2F%2Fexodus.desync.com%3A6969"],"infoHash":"dee3618a79eb4f4e875d435e316e47f2750f3f68","infoHashBuffer":{"type":"Buffer","data":[222,227,97,138,121,235,79,78,135,93,67,94,49,110,71,242,117,15,63,104]},"announce":[],"urlList":[]}}